<mxfile host="app.diagrams.net" modified="2023-05-21T20:41:43.334Z" agent="Mozilla/5.0 (Windows NT 10.0; Win64; x64) AppleWebKit/537.36 (KHTML, like Gecko) Chrome/112.0.0.0 Safari/537.36 Edg/112.0.1722.68" etag="cFFnqS8D1Gzuytm2oFwV" version="21.3.2" type="github">
  <diagram name="Page-1" id="rWR_SryTuK8PaWMyqIM5">
    <mxGraphModel dx="1350" dy="2556" grid="1" gridSize="10" guides="1" tooltips="1" connect="1" arrows="1" fold="1" page="0" pageScale="1" pageWidth="850" pageHeight="1100" math="0" shadow="0">
      <root>
        <mxCell id="0" />
        <mxCell id="1" parent="0" />
        <mxCell id="SWpYkKLqKbCpvX7-Zh5P-11" value="" style="endArrow=none;dashed=1;html=1;rounded=0;exitX=0.5;exitY=0;exitDx=0;exitDy=0;fontFamily=Helvetica;" edge="1" parent="1">
          <mxGeometry width="50" height="50" relative="1" as="geometry">
            <mxPoint x="91" y="-500" as="sourcePoint" />
            <mxPoint x="400" y="-500" as="targetPoint" />
          </mxGeometry>
        </mxCell>
        <mxCell id="OkMad3HkmqYnHFunwMEX-2" value="" style="html=1;whiteSpace=wrap;shape=isoCube2;backgroundOutline=1;isoAngle=15;sketch=1;hachureGap=4;jiggle=2;curveFitting=1;fontFamily=Architects Daughter;fontSource=https%3A%2F%2Ffonts.googleapis.com%2Fcss%3Ffamily%3DArchitects%2BDaughter;fontSize=20;movable=1;resizable=1;rotatable=1;deletable=1;editable=1;locked=0;connectable=1;" parent="1" vertex="1">
          <mxGeometry x="-360" y="40" width="422" height="492" as="geometry" />
        </mxCell>
        <mxCell id="OkMad3HkmqYnHFunwMEX-7" value="" style="endArrow=none;html=1;rounded=0;sketch=1;hachureGap=4;jiggle=2;curveFitting=1;fontFamily=Architects Daughter;fontSource=https%3A%2F%2Ffonts.googleapis.com%2Fcss%3Ffamily%3DArchitects%2BDaughter;fontSize=16;startSize=8;endSize=8;curved=1;exitX=0.002;exitY=0.205;exitDx=0;exitDy=0;exitPerimeter=0;entryX=0.5;entryY=0;entryDx=0;entryDy=0;entryPerimeter=0;" parent="1" source="OkMad3HkmqYnHFunwMEX-2" target="OkMad3HkmqYnHFunwMEX-2" edge="1">
          <mxGeometry width="50" height="50" relative="1" as="geometry">
            <mxPoint x="96" y="361" as="sourcePoint" />
            <mxPoint x="175" y="166" as="targetPoint" />
            <Array as="points">
              <mxPoint x="187" y="435" />
            </Array>
          </mxGeometry>
        </mxCell>
        <mxCell id="OkMad3HkmqYnHFunwMEX-14" value="" style="endArrow=none;html=1;rounded=0;sketch=1;hachureGap=4;jiggle=2;curveFitting=1;fontFamily=Architects Daughter;fontSource=https%3A%2F%2Ffonts.googleapis.com%2Fcss%3Ffamily%3DArchitects%2BDaughter;fontSize=16;startSize=8;endSize=8;exitX=0.002;exitY=0.205;exitDx=0;exitDy=0;exitPerimeter=0;entryX=0.5;entryY=0;entryDx=0;entryDy=0;entryPerimeter=0;" parent="1" edge="1">
          <mxGeometry width="50" height="50" relative="1" as="geometry">
            <mxPoint x="-20" y="611" as="sourcePoint" />
            <mxPoint x="190" y="510" as="targetPoint" />
          </mxGeometry>
        </mxCell>
        <mxCell id="OkMad3HkmqYnHFunwMEX-15" value="" style="endArrow=none;html=1;rounded=0;sketch=1;hachureGap=4;jiggle=2;curveFitting=1;fontFamily=Architects Daughter;fontSource=https%3A%2F%2Ffonts.googleapis.com%2Fcss%3Ffamily%3DArchitects%2BDaughter;fontSize=16;startSize=8;endSize=8;exitX=0.002;exitY=0.205;exitDx=0;exitDy=0;exitPerimeter=0;entryX=0.5;entryY=0;entryDx=0;entryDy=0;entryPerimeter=0;" parent="1" edge="1">
          <mxGeometry width="50" height="50" relative="1" as="geometry">
            <mxPoint x="-80" y="520" as="sourcePoint" />
            <mxPoint x="130" y="621" as="targetPoint" />
          </mxGeometry>
        </mxCell>
        <mxCell id="OkMad3HkmqYnHFunwMEX-17" value="" style="line;strokeWidth=2;direction=south;html=1;sketch=1;hachureGap=4;jiggle=2;curveFitting=1;fontFamily=Architects Daughter;fontSource=https%3A%2F%2Ffonts.googleapis.com%2Fcss%3Ffamily%3DArchitects%2BDaughter;fontSize=20;points=[[0,0.5,0,0,0],[1,0.5,0,0,0]];" parent="1" vertex="1">
          <mxGeometry x="160" y="100" width="10" height="300" as="geometry" />
        </mxCell>
        <mxCell id="OkMad3HkmqYnHFunwMEX-18" value="" style="line;strokeWidth=2;direction=south;html=1;sketch=1;hachureGap=4;jiggle=2;curveFitting=1;fontFamily=Architects Daughter;fontSource=https%3A%2F%2Ffonts.googleapis.com%2Fcss%3Ffamily%3DArchitects%2BDaughter;fontSize=20;rotation=75;points=[[0,0.5,0,0,0],[1,0.5,0,0,0]];" parent="1" vertex="1">
          <mxGeometry x="310" y="210" width="10" height="300" as="geometry" />
        </mxCell>
        <mxCell id="OkMad3HkmqYnHFunwMEX-19" value="" style="line;strokeWidth=2;direction=south;html=1;sketch=1;hachureGap=4;jiggle=2;curveFitting=1;fontFamily=Architects Daughter;fontSource=https%3A%2F%2Ffonts.googleapis.com%2Fcss%3Ffamily%3DArchitects%2BDaughter;fontSize=20;rotation=115;points=[[0,0.5,0,0,0],[1,0.5,0,0,0]];" parent="1" vertex="1">
          <mxGeometry x="300" y="310" width="10" height="300" as="geometry" />
        </mxCell>
        <mxCell id="SWpYkKLqKbCpvX7-Zh5P-2" value="time" style="text;html=1;strokeColor=none;fillColor=none;align=center;verticalAlign=middle;whiteSpace=wrap;rounded=0;fontFamily=Helvetica;fontSize=20;" vertex="1" parent="1">
          <mxGeometry x="331" y="-340" width="60" height="30" as="geometry" />
        </mxCell>
        <mxCell id="SWpYkKLqKbCpvX7-Zh5P-4" value="firing rate" style="text;html=1;strokeColor=none;fillColor=none;align=center;verticalAlign=middle;whiteSpace=wrap;rounded=0;fontFamily=Helvetica;fontSize=20;" vertex="1" parent="1">
          <mxGeometry x="10" y="-650" width="60" height="30" as="geometry" />
        </mxCell>
        <mxCell id="SWpYkKLqKbCpvX7-Zh5P-9" value="spontaneous activity" style="text;html=1;strokeColor=none;fillColor=none;align=center;verticalAlign=middle;whiteSpace=wrap;rounded=0;fontFamily=Helvetica;fontSize=20;" vertex="1" parent="1">
          <mxGeometry x="210" y="-570" width="190" height="30" as="geometry" />
        </mxCell>
        <mxCell id="SWpYkKLqKbCpvX7-Zh5P-6" value="" style="endArrow=none;html=1;rounded=0;exitX=0.5;exitY=0;exitDx=0;exitDy=0;fillColor=#0050ef;strokeColor=#001DBC;strokeWidth=3;fontFamily=Helvetica;" edge="1" parent="1">
          <mxGeometry width="50" height="50" relative="1" as="geometry">
            <mxPoint x="91" y="-500" as="sourcePoint" />
            <mxPoint x="400" y="-510" as="targetPoint" />
            <Array as="points">
              <mxPoint x="110" y="-510" />
              <mxPoint x="130" y="-500" />
              <mxPoint x="150" y="-490" />
              <mxPoint x="170" y="-500" />
              <mxPoint x="200" y="-510" />
              <mxPoint x="210" y="-500" />
              <mxPoint x="220" y="-510" />
              <mxPoint x="240" y="-500" />
              <mxPoint x="260" y="-490" />
              <mxPoint x="300" y="-510" />
              <mxPoint x="330" y="-500" />
              <mxPoint x="360" y="-510" />
              <mxPoint x="370" y="-490" />
            </Array>
          </mxGeometry>
        </mxCell>
        <mxCell id="SWpYkKLqKbCpvX7-Zh5P-18" value="" style="endArrow=none;dashed=1;html=1;rounded=0;exitX=0.5;exitY=0;exitDx=0;exitDy=0;fontFamily=Helvetica;" edge="1" parent="1">
          <mxGeometry width="50" height="50" relative="1" as="geometry">
            <mxPoint x="591" y="-500" as="sourcePoint" />
            <mxPoint x="900" y="-500" as="targetPoint" />
          </mxGeometry>
        </mxCell>
        <mxCell id="SWpYkKLqKbCpvX7-Zh5P-20" value="time" style="text;html=1;strokeColor=none;fillColor=none;align=center;verticalAlign=middle;whiteSpace=wrap;rounded=0;fontFamily=Helvetica;fontSize=20;" vertex="1" parent="1">
          <mxGeometry x="831" y="-340" width="60" height="30" as="geometry" />
        </mxCell>
        <mxCell id="SWpYkKLqKbCpvX7-Zh5P-21" value="firing rate" style="text;html=1;strokeColor=none;fillColor=none;align=center;verticalAlign=middle;whiteSpace=wrap;rounded=0;fontFamily=Helvetica;fontSize=20;" vertex="1" parent="1">
          <mxGeometry x="510" y="-650" width="60" height="30" as="geometry" />
        </mxCell>
        <mxCell id="SWpYkKLqKbCpvX7-Zh5P-23" value="" style="endArrow=none;html=1;rounded=0;exitX=0.5;exitY=0;exitDx=0;exitDy=0;fillColor=#0050ef;strokeColor=#001DBC;strokeWidth=3;fontFamily=Helvetica;" edge="1" parent="1">
          <mxGeometry width="50" height="50" relative="1" as="geometry">
            <mxPoint x="591" y="-500" as="sourcePoint" />
            <mxPoint x="900" y="-510" as="targetPoint" />
            <Array as="points">
              <mxPoint x="610" y="-510" />
              <mxPoint x="630" y="-500" />
              <mxPoint x="650" y="-490" />
              <mxPoint x="670" y="-500" />
              <mxPoint x="690" y="-620" />
              <mxPoint x="703" y="-626" />
              <mxPoint x="721" y="-617" />
              <mxPoint x="730" y="-620" />
              <mxPoint x="741" y="-625" />
              <mxPoint x="760" y="-620" />
              <mxPoint x="780" y="-550" />
              <mxPoint x="810" y="-510" />
              <mxPoint x="840" y="-490" />
              <mxPoint x="860" y="-510" />
              <mxPoint x="870" y="-490" />
            </Array>
          </mxGeometry>
        </mxCell>
        <mxCell id="SWpYkKLqKbCpvX7-Zh5P-24" value="" style="endArrow=classic;html=1;rounded=0;" edge="1" parent="1">
          <mxGeometry width="50" height="50" relative="1" as="geometry">
            <mxPoint x="670" y="-500" as="sourcePoint" />
            <mxPoint x="670" y="-620" as="targetPoint" />
          </mxGeometry>
        </mxCell>
        <mxCell id="SWpYkKLqKbCpvX7-Zh5P-25" value="" style="endArrow=none;dashed=1;html=1;rounded=0;exitX=0.5;exitY=0;exitDx=0;exitDy=0;fontFamily=Helvetica;" edge="1" parent="1">
          <mxGeometry width="50" height="50" relative="1" as="geometry">
            <mxPoint x="591" y="-620" as="sourcePoint" />
            <mxPoint x="900" y="-620" as="targetPoint" />
          </mxGeometry>
        </mxCell>
        <mxCell id="SWpYkKLqKbCpvX7-Zh5P-34" value="firing rate" style="text;html=1;strokeColor=none;fillColor=none;align=center;verticalAlign=middle;whiteSpace=wrap;rounded=0;fontFamily=Helvetica;fontSize=20;" vertex="1" parent="1">
          <mxGeometry x="1050" y="-640" width="60" height="30" as="geometry" />
        </mxCell>
        <mxCell id="SWpYkKLqKbCpvX7-Zh5P-35" value="" style="endArrow=none;html=1;rounded=0;entryX=1;entryY=0;entryDx=0;entryDy=0;exitX=0;exitY=0;exitDx=0;exitDy=0;endFill=0;" edge="1" parent="1">
          <mxGeometry width="50" height="50" relative="1" as="geometry">
            <mxPoint x="1131" y="-340" as="sourcePoint" />
            <mxPoint x="1131" y="-640" as="targetPoint" />
          </mxGeometry>
        </mxCell>
        <mxCell id="SWpYkKLqKbCpvX7-Zh5P-36" value="" style="ellipse;whiteSpace=wrap;html=1;fillColor=#0050ef;fontColor=#ffffff;strokeColor=#001DBC;" vertex="1" parent="1">
          <mxGeometry x="1123" y="-505" width="15" height="15" as="geometry" />
        </mxCell>
        <mxCell id="SWpYkKLqKbCpvX7-Zh5P-41" value="" style="group" vertex="1" connectable="0" parent="1">
          <mxGeometry x="91" y="-650" width="300" height="300" as="geometry" />
        </mxCell>
        <mxCell id="SWpYkKLqKbCpvX7-Zh5P-38" value="" style="endArrow=classic;html=1;rounded=0;entryX=1;entryY=0;entryDx=0;entryDy=0;exitX=0;exitY=0;exitDx=0;exitDy=0;endFill=1;" edge="1" parent="SWpYkKLqKbCpvX7-Zh5P-41">
          <mxGeometry width="50" height="50" relative="1" as="geometry">
            <mxPoint y="300" as="sourcePoint" />
            <mxPoint as="targetPoint" />
          </mxGeometry>
        </mxCell>
        <mxCell id="SWpYkKLqKbCpvX7-Zh5P-39" value="" style="endArrow=classic;html=1;rounded=0;entryX=0;entryY=1;entryDx=0;entryDy=0;exitX=0;exitY=0;exitDx=0;exitDy=0;endFill=1;" edge="1" parent="SWpYkKLqKbCpvX7-Zh5P-41">
          <mxGeometry width="50" height="50" relative="1" as="geometry">
            <mxPoint y="300" as="sourcePoint" />
            <mxPoint x="300" y="300" as="targetPoint" />
          </mxGeometry>
        </mxCell>
        <mxCell id="SWpYkKLqKbCpvX7-Zh5P-46" value="" style="group" vertex="1" connectable="0" parent="1">
          <mxGeometry x="590" y="-650" width="300" height="300" as="geometry" />
        </mxCell>
        <mxCell id="SWpYkKLqKbCpvX7-Zh5P-47" value="" style="endArrow=classic;html=1;rounded=0;entryX=1;entryY=0;entryDx=0;entryDy=0;exitX=0;exitY=0;exitDx=0;exitDy=0;endFill=1;" edge="1" parent="SWpYkKLqKbCpvX7-Zh5P-46">
          <mxGeometry width="50" height="50" relative="1" as="geometry">
            <mxPoint y="300" as="sourcePoint" />
            <mxPoint as="targetPoint" />
          </mxGeometry>
        </mxCell>
        <mxCell id="SWpYkKLqKbCpvX7-Zh5P-48" value="" style="endArrow=classic;html=1;rounded=0;entryX=0;entryY=1;entryDx=0;entryDy=0;exitX=0;exitY=0;exitDx=0;exitDy=0;endFill=1;" edge="1" parent="SWpYkKLqKbCpvX7-Zh5P-46">
          <mxGeometry width="50" height="50" relative="1" as="geometry">
            <mxPoint y="300" as="sourcePoint" />
            <mxPoint x="300" y="300" as="targetPoint" />
          </mxGeometry>
        </mxCell>
        <mxCell id="SWpYkKLqKbCpvX7-Zh5P-54" value="" style="endArrow=none;dashed=1;html=1;rounded=0;exitX=0.5;exitY=0;exitDx=0;exitDy=0;fontFamily=Helvetica;" edge="1" parent="1">
          <mxGeometry width="50" height="50" relative="1" as="geometry">
            <mxPoint x="601" y="-890" as="sourcePoint" />
            <mxPoint x="910" y="-890" as="targetPoint" />
          </mxGeometry>
        </mxCell>
        <mxCell id="SWpYkKLqKbCpvX7-Zh5P-55" value="time" style="text;html=1;strokeColor=none;fillColor=none;align=center;verticalAlign=middle;whiteSpace=wrap;rounded=0;fontFamily=Helvetica;fontSize=20;" vertex="1" parent="1">
          <mxGeometry x="841" y="-730" width="60" height="30" as="geometry" />
        </mxCell>
        <mxCell id="SWpYkKLqKbCpvX7-Zh5P-56" value="firing rate" style="text;html=1;strokeColor=none;fillColor=none;align=center;verticalAlign=middle;whiteSpace=wrap;rounded=0;fontFamily=Helvetica;fontSize=20;" vertex="1" parent="1">
          <mxGeometry x="520" y="-1040" width="60" height="30" as="geometry" />
        </mxCell>
        <mxCell id="SWpYkKLqKbCpvX7-Zh5P-60" value="" style="group" vertex="1" connectable="0" parent="1">
          <mxGeometry x="600" y="-1040" width="300" height="300" as="geometry" />
        </mxCell>
        <mxCell id="SWpYkKLqKbCpvX7-Zh5P-61" value="" style="endArrow=classic;html=1;rounded=0;entryX=1;entryY=0;entryDx=0;entryDy=0;exitX=0;exitY=0;exitDx=0;exitDy=0;endFill=1;" edge="1" parent="SWpYkKLqKbCpvX7-Zh5P-60">
          <mxGeometry width="50" height="50" relative="1" as="geometry">
            <mxPoint y="300" as="sourcePoint" />
            <mxPoint as="targetPoint" />
          </mxGeometry>
        </mxCell>
        <mxCell id="SWpYkKLqKbCpvX7-Zh5P-62" value="" style="endArrow=classic;html=1;rounded=0;entryX=0;entryY=1;entryDx=0;entryDy=0;exitX=0;exitY=0;exitDx=0;exitDy=0;endFill=1;" edge="1" parent="SWpYkKLqKbCpvX7-Zh5P-60">
          <mxGeometry width="50" height="50" relative="1" as="geometry">
            <mxPoint y="300" as="sourcePoint" />
            <mxPoint x="300" y="300" as="targetPoint" />
          </mxGeometry>
        </mxCell>
        <mxCell id="SWpYkKLqKbCpvX7-Zh5P-57" value="" style="endArrow=none;html=1;rounded=0;exitX=0.5;exitY=0;exitDx=0;exitDy=0;fillColor=#0050ef;strokeColor=#001DBC;strokeWidth=3;fontFamily=Helvetica;" edge="1" parent="1">
          <mxGeometry width="50" height="50" relative="1" as="geometry">
            <mxPoint x="601" y="-890" as="sourcePoint" />
            <mxPoint x="910" y="-880" as="targetPoint" />
            <Array as="points">
              <mxPoint x="620" y="-880" />
              <mxPoint x="640" y="-890" />
              <mxPoint x="660" y="-900" />
              <mxPoint x="680" y="-890" />
              <mxPoint x="700" y="-770" />
              <mxPoint x="713" y="-764" />
              <mxPoint x="731" y="-773" />
              <mxPoint x="740" y="-770" />
              <mxPoint x="751" y="-765" />
              <mxPoint x="770" y="-770" />
              <mxPoint x="790" y="-840" />
              <mxPoint x="820" y="-880" />
              <mxPoint x="850" y="-900" />
              <mxPoint x="870" y="-880" />
              <mxPoint x="880" y="-900" />
            </Array>
          </mxGeometry>
        </mxCell>
        <mxCell id="SWpYkKLqKbCpvX7-Zh5P-58" value="" style="endArrow=classic;html=1;rounded=0;" edge="1" parent="1">
          <mxGeometry width="50" height="50" relative="1" as="geometry">
            <mxPoint x="680" y="-890" as="sourcePoint" />
            <mxPoint x="680" y="-770" as="targetPoint" />
          </mxGeometry>
        </mxCell>
        <mxCell id="SWpYkKLqKbCpvX7-Zh5P-59" value="" style="endArrow=none;dashed=1;html=1;rounded=0;exitX=0.5;exitY=0;exitDx=0;exitDy=0;fontFamily=Helvetica;" edge="1" parent="1">
          <mxGeometry width="50" height="50" relative="1" as="geometry">
            <mxPoint x="601" y="-770" as="sourcePoint" />
            <mxPoint x="910" y="-770" as="targetPoint" />
          </mxGeometry>
        </mxCell>
        <mxCell id="SWpYkKLqKbCpvX7-Zh5P-64" value="" style="endArrow=block;html=1;rounded=0;endFill=1;endSize=11;strokeWidth=0;" edge="1" parent="1">
          <mxGeometry width="50" height="50" relative="1" as="geometry">
            <mxPoint x="1130.94" y="-589" as="sourcePoint" />
            <mxPoint x="1130.94" y="-559" as="targetPoint" />
            <Array as="points" />
          </mxGeometry>
        </mxCell>
        <mxCell id="SWpYkKLqKbCpvX7-Zh5P-66" value="" style="endArrow=block;html=1;rounded=0;endFill=1;endSize=11;strokeWidth=0;" edge="1" parent="1">
          <mxGeometry width="50" height="50" relative="1" as="geometry">
            <mxPoint x="1131" y="-401" as="sourcePoint" />
            <mxPoint x="1131" y="-431" as="targetPoint" />
            <Array as="points" />
          </mxGeometry>
        </mxCell>
        <mxCell id="SWpYkKLqKbCpvX7-Zh5P-71" value="" style="curved=1;endArrow=none;html=1;rounded=0;endFill=0;" edge="1" parent="1">
          <mxGeometry width="50" height="50" relative="1" as="geometry">
            <mxPoint x="1440" y="-1000" as="sourcePoint" />
            <mxPoint x="1120" y="-1000" as="targetPoint" />
            <Array as="points">
              <mxPoint x="1280" y="-520" />
            </Array>
          </mxGeometry>
        </mxCell>
        <mxCell id="SWpYkKLqKbCpvX7-Zh5P-79" value="" style="group" vertex="1" connectable="0" parent="1">
          <mxGeometry x="1120" y="-1008" width="320" height="15" as="geometry" />
        </mxCell>
        <mxCell id="SWpYkKLqKbCpvX7-Zh5P-72" value="" style="endArrow=none;html=1;rounded=0;endFill=0;" edge="1" parent="SWpYkKLqKbCpvX7-Zh5P-79">
          <mxGeometry width="50" height="50" relative="1" as="geometry">
            <mxPoint y="8" as="sourcePoint" />
            <mxPoint x="320" y="8" as="targetPoint" />
          </mxGeometry>
        </mxCell>
        <mxCell id="SWpYkKLqKbCpvX7-Zh5P-73" value="" style="ellipse;whiteSpace=wrap;html=1;fillColor=#0050ef;fontColor=#ffffff;strokeColor=#001DBC;direction=east;rotation=90;" vertex="1" parent="SWpYkKLqKbCpvX7-Zh5P-79">
          <mxGeometry x="152" width="15" height="15" as="geometry" />
        </mxCell>
        <mxCell id="SWpYkKLqKbCpvX7-Zh5P-74" value="" style="endArrow=block;html=1;rounded=0;endFill=1;endSize=11;strokeWidth=0;" edge="1" parent="SWpYkKLqKbCpvX7-Zh5P-79">
          <mxGeometry width="50" height="50" relative="1" as="geometry">
            <mxPoint x="259" y="8" as="sourcePoint" />
            <mxPoint x="229" y="8" as="targetPoint" />
            <Array as="points" />
          </mxGeometry>
        </mxCell>
        <mxCell id="SWpYkKLqKbCpvX7-Zh5P-75" value="" style="endArrow=block;html=1;rounded=0;endFill=1;endSize=11;strokeWidth=0;" edge="1" parent="SWpYkKLqKbCpvX7-Zh5P-79">
          <mxGeometry width="50" height="50" relative="1" as="geometry">
            <mxPoint x="61" y="8" as="sourcePoint" />
            <mxPoint x="91" y="8" as="targetPoint" />
            <Array as="points" />
          </mxGeometry>
        </mxCell>
        <mxCell id="SWpYkKLqKbCpvX7-Zh5P-80" value="" style="ellipse;whiteSpace=wrap;html=1;fillColor=#0050ef;fontColor=#ffffff;strokeColor=#001DBC;direction=east;rotation=90;" vertex="1" parent="1">
          <mxGeometry x="1272.5" y="-776" width="15" height="15" as="geometry" />
        </mxCell>
        <mxCell id="SWpYkKLqKbCpvX7-Zh5P-85" value="time" style="text;html=1;strokeColor=none;fillColor=none;align=center;verticalAlign=middle;whiteSpace=wrap;rounded=0;fontFamily=Helvetica;fontSize=20;" vertex="1" parent="1">
          <mxGeometry x="1041" y="-1310" width="60" height="30" as="geometry" />
        </mxCell>
        <mxCell id="SWpYkKLqKbCpvX7-Zh5P-86" value="firing rate" style="text;html=1;strokeColor=none;fillColor=none;align=center;verticalAlign=middle;whiteSpace=wrap;rounded=0;fontFamily=Helvetica;fontSize=20;" vertex="1" parent="1">
          <mxGeometry x="720" y="-1620" width="60" height="30" as="geometry" />
        </mxCell>
        <mxCell id="SWpYkKLqKbCpvX7-Zh5P-87" value="" style="group" vertex="1" connectable="0" parent="1">
          <mxGeometry x="801" y="-1620" width="300" height="300" as="geometry" />
        </mxCell>
        <mxCell id="SWpYkKLqKbCpvX7-Zh5P-88" value="" style="endArrow=classic;html=1;rounded=0;entryX=1;entryY=0;entryDx=0;entryDy=0;exitX=0;exitY=0;exitDx=0;exitDy=0;endFill=1;" edge="1" parent="SWpYkKLqKbCpvX7-Zh5P-87">
          <mxGeometry width="50" height="50" relative="1" as="geometry">
            <mxPoint y="300" as="sourcePoint" />
            <mxPoint as="targetPoint" />
          </mxGeometry>
        </mxCell>
        <mxCell id="SWpYkKLqKbCpvX7-Zh5P-89" value="" style="endArrow=classic;html=1;rounded=0;entryX=0;entryY=1;entryDx=0;entryDy=0;exitX=0;exitY=0;exitDx=0;exitDy=0;endFill=1;" edge="1" parent="SWpYkKLqKbCpvX7-Zh5P-87">
          <mxGeometry width="50" height="50" relative="1" as="geometry">
            <mxPoint y="300" as="sourcePoint" />
            <mxPoint x="300" y="300" as="targetPoint" />
          </mxGeometry>
        </mxCell>
        <mxCell id="SWpYkKLqKbCpvX7-Zh5P-90" value="" style="endArrow=none;dashed=1;html=1;rounded=0;exitX=0.5;exitY=0;exitDx=0;exitDy=0;fontFamily=Helvetica;" edge="1" parent="1">
          <mxGeometry width="50" height="50" relative="1" as="geometry">
            <mxPoint x="40" y="-1444" as="sourcePoint" />
            <mxPoint x="430" y="-1444" as="targetPoint" />
          </mxGeometry>
        </mxCell>
        <mxCell id="SWpYkKLqKbCpvX7-Zh5P-91" value="" style="endArrow=none;html=1;rounded=0;exitX=0.5;exitY=0;exitDx=0;exitDy=0;fillColor=#0050ef;strokeColor=#001DBC;strokeWidth=3;fontFamily=Helvetica;" edge="1" parent="1">
          <mxGeometry width="50" height="50" relative="1" as="geometry">
            <mxPoint x="40" y="-1444" as="sourcePoint" />
            <mxPoint x="410" y="-1440" as="targetPoint" />
            <Array as="points">
              <mxPoint x="59" y="-1454" />
              <mxPoint x="79" y="-1444" />
              <mxPoint x="99" y="-1434" />
              <mxPoint x="119" y="-1444" />
              <mxPoint x="139" y="-1564" />
              <mxPoint x="152" y="-1570" />
              <mxPoint x="170" y="-1561" />
              <mxPoint x="179" y="-1564" />
              <mxPoint x="190" y="-1569" />
              <mxPoint x="209" y="-1564" />
              <mxPoint x="220" y="-1561" />
              <mxPoint x="230" y="-1570" />
              <mxPoint x="240" y="-1570" />
              <mxPoint x="250" y="-1561" />
              <mxPoint x="259" y="-1564" />
              <mxPoint x="270" y="-1570" />
              <mxPoint x="280" y="-1570" />
              <mxPoint x="300" y="-1510" />
              <mxPoint x="330" y="-1450" />
              <mxPoint x="360" y="-1454" />
              <mxPoint x="390" y="-1454" />
            </Array>
          </mxGeometry>
        </mxCell>
        <mxCell id="SWpYkKLqKbCpvX7-Zh5P-92" value="" style="endArrow=none;html=1;rounded=0;exitX=0.5;exitY=0;exitDx=0;exitDy=0;fillColor=#e51400;strokeColor=#B20000;strokeWidth=3;fontFamily=Helvetica;" edge="1" parent="1">
          <mxGeometry width="50" height="50" relative="1" as="geometry">
            <mxPoint x="110" y="-1444" as="sourcePoint" />
            <mxPoint x="419" y="-1454" as="targetPoint" />
            <Array as="points">
              <mxPoint x="129" y="-1454" />
              <mxPoint x="149" y="-1444" />
              <mxPoint x="169" y="-1434" />
              <mxPoint x="189" y="-1444" />
              <mxPoint x="209" y="-1564" />
              <mxPoint x="222" y="-1570" />
              <mxPoint x="240" y="-1561" />
              <mxPoint x="249" y="-1564" />
              <mxPoint x="260" y="-1569" />
              <mxPoint x="279" y="-1564" />
              <mxPoint x="299" y="-1494" />
              <mxPoint x="329" y="-1454" />
              <mxPoint x="359" y="-1434" />
              <mxPoint x="379" y="-1454" />
              <mxPoint x="389" y="-1434" />
            </Array>
          </mxGeometry>
        </mxCell>
        <mxCell id="SWpYkKLqKbCpvX7-Zh5P-93" value="" style="endArrow=none;dashed=1;html=1;rounded=0;exitX=0.5;exitY=0;exitDx=0;exitDy=0;fontFamily=Helvetica;" edge="1" parent="1">
          <mxGeometry width="50" height="50" relative="1" as="geometry">
            <mxPoint x="140" y="-1424" as="sourcePoint" />
            <mxPoint x="140" y="-1600" as="targetPoint" />
          </mxGeometry>
        </mxCell>
        <mxCell id="SWpYkKLqKbCpvX7-Zh5P-94" value="" style="endArrow=none;dashed=1;html=1;rounded=0;exitX=0.5;exitY=0;exitDx=0;exitDy=0;fontFamily=Helvetica;" edge="1" parent="1">
          <mxGeometry width="50" height="50" relative="1" as="geometry">
            <mxPoint x="210" y="-1424" as="sourcePoint" />
            <mxPoint x="210" y="-1600" as="targetPoint" />
          </mxGeometry>
        </mxCell>
        <mxCell id="SWpYkKLqKbCpvX7-Zh5P-95" value="" style="endArrow=none;dashed=1;html=1;rounded=0;exitX=0.5;exitY=0;exitDx=0;exitDy=0;fontFamily=Helvetica;" edge="1" parent="1">
          <mxGeometry width="50" height="50" relative="1" as="geometry">
            <mxPoint x="280" y="-1424" as="sourcePoint" />
            <mxPoint x="280" y="-1600" as="targetPoint" />
          </mxGeometry>
        </mxCell>
      </root>
    </mxGraphModel>
  </diagram>
</mxfile>
